<?xml version="1.0" encoding="UTF-8" standalone="no"?>
<svg
   xmlns:dc="http://purl.org/dc/elements/1.1/"
   xmlns:cc="http://creativecommons.org/ns#"
   xmlns:rdf="http://www.w3.org/1999/02/22-rdf-syntax-ns#"
   xmlns:svg="http://www.w3.org/2000/svg"
   xmlns="http://www.w3.org/2000/svg"
   xmlns:sodipodi="http://sodipodi.sourceforge.net/DTD/sodipodi-0.dtd"
   xmlns:inkscape="http://www.inkscape.org/namespaces/inkscape"
   height="800px"
   width="800px"
   version="1.1"
   id="Capa_1"
   viewBox="0 0 369.946 369.946"
   xml:space="preserve"
   sodipodi:docname="smiley-face-svgrepo-com.svg"
   inkscape:version="1.0.1 (3bc2e813f5, 2020-09-07)"><metadata
   id="metadata19"><rdf:RDF><cc:Work
       rdf:about=""><dc:format>image/svg+xml</dc:format><dc:type
         rdf:resource="http://purl.org/dc/dcmitype/StillImage" /></cc:Work></rdf:RDF></metadata><defs
   id="defs17" /><sodipodi:namedview
   pagecolor="#ffffff"
   bordercolor="#666666"
   borderopacity="1"
   objecttolerance="10"
   gridtolerance="10"
   guidetolerance="10"
   inkscape:pageopacity="0"
   inkscape:pageshadow="2"
   inkscape:window-width="1620"
   inkscape:window-height="1018"
   id="namedview15"
   showgrid="false"
   inkscape:zoom="0.91875"
   inkscape:cx="400"
   inkscape:cy="400"
   inkscape:window-x="-6"
   inkscape:window-y="-6"
   inkscape:window-maximized="1"
   inkscape:current-layer="Capa_1" />
<g
   id="g12"
   style="fill:#0aafe6;fill-opacity:1">
	<g
   id="g10"
   style="fill:#0aafe6;fill-opacity:1">
		<circle
   style="fill:#0aafe6;fill-opacity:1"
   cx="121.33"
   cy="137.238"
   r="13.921"
   id="circle2" />
		<path
   style="fill:#0aafe6;fill-opacity:1"
   d="M184.973,0C82.975,0,0,82.975,0,184.973s82.975,184.973,184.973,184.973    s184.973-82.975,184.973-184.973S286.971,0,184.973,0z M248.622,111.378c14.261,0,25.854,11.6,25.854,25.86    s-11.594,25.854-25.854,25.854s-25.854-11.594-25.854-25.854S234.361,111.378,248.622,111.378z M121.33,111.378    c14.261,0,25.854,11.6,25.854,25.86s-11.594,25.854-25.854,25.854s-25.86-11.594-25.86-25.854S107.07,111.378,121.33,111.378z     M310.277,217.236h-1.11c-3.145,65.868-57.562,118.526-124.194,118.526S63.923,283.104,60.779,217.236h-1.11v-11.934h250.609    V217.236z"
   id="path4" />
		<path
   style="fill:#0aafe6;fill-opacity:1"
   d="M184.973,323.828c60.051,0,109.128-47.311,112.261-106.592H72.712    C75.845,276.517,124.922,323.828,184.973,323.828z"
   id="path6" />
		<circle
   style="fill:#0aafe6;fill-opacity:1"
   cx="248.622"
   cy="137.238"
   r="13.921"
   id="circle8" />
	</g>
</g>
</svg>
